<svg width="30" height="32" viewBox="0 0 30 32" fill="none" xmlns="http://www.w3.org/2000/svg">
<path d="M29.7331 7.06066L15.2038 0.0465327C15.075 -0.0155923 14.925 -0.0155923 14.7963 0.0465327L0.266952 7.06066C0.104952 7.13885 0.00201416 7.30291 0.00201416 7.48278V24.5171C0.00201416 24.697 0.104952 24.861 0.266952 24.9392L14.7962 31.9533C14.8606 31.9844 14.9303 32 15 32C15.0697 32 15.1394 31.9844 15.2038 31.9533L29.7331 24.9392C29.8951 24.861 29.998 24.697 29.998 24.5171V7.48285C29.998 7.30285 29.895 7.13891 29.7331 7.06066ZM15 0.98922L28.4511 7.48278L24.5519 9.36516C24.5272 9.34635 24.5011 9.32897 24.4725 9.31516L11.1128 2.86578L15 0.98922ZM10.0542 3.39578L23.4857 9.87991L20.7348 11.208L7.30883 4.72647L10.0542 3.39578ZM23.8 10.7692V15.6783L21.2304 16.9188V12.0097L23.8 10.7692ZM29.0605 24.223L15.4688 30.7843V14.7911L21.1424 12.0522C21.3755 11.9397 21.4733 11.6595 21.3607 11.4263C21.2481 11.1932 20.968 11.0953 20.7348 11.208L15 13.9764L11.6971 12.3819C11.464 12.2692 11.1838 12.3671 11.0712 12.6002C10.9586 12.8333 11.0564 13.1136 11.2895 13.2262L14.5313 14.7911V30.7843L0.939514 24.2228V8.2296L11.2895 13.2262C11.3552 13.2579 11.4246 13.2729 11.493 13.2729C11.6672 13.2729 11.8346 13.1753 11.9154 13.0078C12.028 12.7747 11.9303 12.4945 11.6971 12.3819L1.54895 7.48278L6.20552 5.23478L20.2864 12.0325C20.2885 12.0353 20.2908 12.0379 20.2929 12.0407V17.6657C20.2929 17.827 20.3758 17.9769 20.5125 18.0627C20.5883 18.1103 20.6749 18.1344 20.7617 18.1344C20.8312 18.1344 20.9009 18.119 20.9655 18.0878L24.4725 16.3947C24.6345 16.3165 24.7375 16.1525 24.7375 15.9726V10.3167L29.0605 8.22966V24.223Z" fill="black"/>
</svg>
